<svg xmlns="http://www.w3.org/2000/svg" viewBox="0 0 500 198"><g fill="#00aeef"><path d="M7.99 0h66.65c10.22.47 21.06 3.31 28.29 11.01 9.47 10.04 10.73 25.86 5.41 38.22-4.91 11.42-14.86 19.6-25.05 26.2 10.3 20.15 23.45 38.73 38.19 55.87-9.65 6.66-19.28 13.33-28.94 19.97C71.28 127.01 55 98.78 41.99 69.37c9.17-6.85 19.35-12.77 26.49-21.9 2.88-3.76 5.35-9.1 2.92-13.68-2.41-3.75-7.35-4.02-11.37-4.2-20-.07-40.01-.01-60.02-.02C2.57 19.68 5.34 9.86 7.99 0zm291.57 0h30.94c0 8.73.01 17.46-.01 26.19-10.31-.01-20.62 0-30.92-.01-.01-8.72 0-17.45-.01-26.18z"/><path d="M123.42 39.47c10.03-6.98 22.81-7.57 34.61-7.54 10.87-.12 22.77.45 31.83 7.19 6.18 4.5 8.8 12.44 8.34 19.87.12 10.81-5.34 20.91-12.93 28.32-6.5 6.5-14.3 11.49-22.23 16.04 10.01 2.28 20.32 1.63 30.51 1.71-2.56 8.75-5.17 17.49-7.74 26.25-6.95-.03-13.9.08-20.84-.05-17.19-.55-33.36-10.21-43.14-24.16-8.88-12.34-12.66-28.03-10.84-43.08.8-9.32 4.49-19.05 12.43-24.55m20.35 25.46c-2.85 6.08-1.37 13.07.44 19.23 7.12-3.85 14.34-8.08 19.55-14.4 1.98-2.54 4-6.34 1.93-9.37-2.2-2.36-5.78-2.1-8.74-2.18-5.09-.08-10.87 1.79-13.18 6.72zm279.99-28.09c11.39-6.19 24.73-4.76 37.19-4.9 10.16.04 21 2.35 28.65 9.46 6.7 6.08 9.78 15.16 10.4 23.99v7.2c-.83 13.64-4.43 27.25-11.48 39.02-5 8.29-12 15.74-20.98 19.69-10.34 4.63-22.9 3.74-32.52-2.25-10.24-6.26-17.23-16.68-21.7-27.61-4.88-12.17-7.23-25.49-6.1-38.59.98-10.62 6.81-21.11 16.54-26.01m24.71 21.81c-5.24.68-9.62 5.11-9.82 10.46-.53 9.04 1.11 18.27 4.85 26.52 1.87 3.81 4.11 7.79 7.89 9.98 3.06 1.75 6.08-1.08 7.92-3.31 6.2-8.03 8.54-18.4 9.04-28.36.25-4.41-.18-9.52-3.81-12.55-4.47-3.56-10.69-3.55-16.07-2.74zM6.45 131.32c-.02-32.59-.02-65.18 0-97.76 11.49.01 22.99 0 34.49 0 0 32.59 0 65.17-.01 97.75-11.49 0-22.99 0-34.48.01zM197.31 34.2c10.85-.03 21.7 0 32.56-.02 5.34 20.83 10.54 41.69 15.93 62.5 5.42-20.8 10.59-41.67 15.91-62.49 10.87 0 21.74-.01 32.61 0-10.18 32.38-20.42 64.73-30.59 97.11-11.93.02-23.86.01-35.79.01-10.21-32.37-20.41-64.75-30.63-97.11zm102.26-.01c10.3-.01 20.61 0 30.92-.01.02 32.38.01 64.75.01 97.13h-30.93c-.01-32.38-.01-64.75 0-97.12zm51.89 3.3c4.4-2.42 9.48-3.26 14.46-3.29 8.62-.04 17.25 0 25.88-.02 2.59 8.48 5.16 16.96 7.77 25.44-5.86.09-11.72-.17-17.56.13-1.76.2-4.17.29-4.94 2.21-.78 1.96.62 3.77 1.7 5.28 5.64 7.3 11.63 14.35 17.1 21.78 5.37 7.41 8.41 17.23 5.33 26.18-2.83 9.1-11.71 15.7-21.2 16.03-11.12.2-22.24.01-33.36.09-2.6-8.75-5.16-17.5-7.74-26.26 7.4.07 14.8-.22 22.18.34 1.81-.02 4.08.16 5.33-1.46.77-2.01-.77-3.91-1.78-5.52-5.58-7.4-11.36-14.64-16.96-22.02-3.63-4.84-6.88-10.26-7.71-16.36-1.39-8.93 3.55-18.35 11.5-22.55z"/></g><path fill="#005596" d="M209.09 152.91c2.09-1.82 5.66.4 5.02 3.08-.26 2.29-3.28 3.41-5.04 2-1.69-1.15-1.7-3.95.02-5.08zm83.04.25c2.3-.83 4.51 1.48 4.16 3.77-.16 9.66.13 19.34-.13 29-.52 3.17-5.59 3.18-6.16.04-.34-8.97.02-17.97-.16-26.95-.01-2.09-.3-5.16 2.29-5.86zm76.18.34c2.36-1.64 5.42.86 4.89 3.51-.1 9.66.16 19.33-.12 28.98-.57 3.1-5.59 3.12-6.11 0-.28-9.01.05-18.03-.14-27.04.1-1.83-.43-4.35 1.48-5.45zm17.19 9.11c4.05-.46 8.39-.83 12.28.67 3.53 1.35 3.8 5.94 2.48 8.97-1.71 4.16-5.94 6.2-9.34 8.73-.83 1.99 1.86 2.05 3.08 2.15 2.03.34 4.86-.39 5.97 1.9.32 1.52-.51 3.01-2.06 3.37-4.11.18-8.57.1-12.13-2.22-6.22-3.81-9.15-12.17-6.59-19.01.92-2.67 3.64-4.16 6.31-4.56m1.56 5.46c-3.31 2.06-2.25 6.46-1.24 9.52 3.39-1.23 6.92-3.23 8.5-6.62 1.04-4.16-4.78-4.49-7.26-2.9zm-197.8-4.68c3.51-.84 7.19-.58 10.77-.43 1.9-.16 3.06 2.44 1.78 3.83-1.94 1.9-5.14.08-7.23 1.7-1.53 1.89.66 3.76 1.71 5.25 2.25 3 5.74 6.05 5.05 10.21-.52 2.95-3.54 4.71-6.4 4.42-25.62.02-51.25-.01-76.87.02-2.02-.1-3.13-2.61-1.82-4.17 1.58-1.47 3.88-.79 5.81-.89 22.61.13 45.23.05 67.84.17 1.65.07 4.24-.21 3.78-2.53-1.91-3.81-5.32-6.62-7.21-10.43-1.38-2.61.01-6.19 2.79-7.15zm19.96 0c1.93-1.43 5.09.18 4.87 2.63.02 6.66.16 13.33-.06 19.98-.66 3.03-5.46 3-6.12-.01-.32-5.66.05-11.35-.14-17.01.11-1.88-.44-4.41 1.45-5.59zm11.74 2.51c-.18-2.13 2.1-3.36 3.97-3.04 8.06.16 16.15-.3 24.19.27 3.09.11 5.46 2.7 5.67 5.71.56 5.71.41 11.5.21 17.23-.51 3.04-5.47 2.99-5.86-.08-.55-5.21.39-10.51-.51-15.69-1.05-3.09-4.95-2.34-7.48-2.22-.28 5.97.15 11.97-.21 17.94-.41 3.06-5.41 3.07-5.85.02-.43-5.98.08-11.99-.26-17.98-2.52-.05-5.18-.67-7.6.24-.66 5.9.14 11.87-.36 17.78-.48 3-5.4 3-5.83-.03-.24-6.71-.07-13.44-.08-20.15zm41.22-.86c.85-2.91 4.56-1.99 6.84-2.22 4.66.21 10.46-.74 13.84 3.28 3.34 4.85 1.93 11.75-1.58 16.14-3.12 4.07-8.11 5.9-12.88 7.23-.09 2.92.67 6.34-1.82 8.53h-2.75c-2.66-2.26-1.68-5.95-1.86-9 .21-7.98-.27-15.99.21-23.96m6.48 2.79c-.58 4.89-.47 9.86-.19 14.76.33.21.97.62 1.29.83 5.86-.75 9.95-7.68 7.83-13.14-1.79-3.15-5.93-2.22-8.93-2.45zm32.87-.77c-1.02-3.52 4.26-5.75 6.21-2.77 2.04 3.73 1.99 8.3 4.28 11.94 1.94.07 2.1-2 2.63-3.38 1.07-2.99 1.33-6.37 3.16-9.04 2.08-2.36 6.51.11 5.37 3.13-2.46 7.76-5.5 15.33-8.07 23.05-1.01 2.79-1.64 5.91-3.9 8.01h-2.38c-4.06-2.68-.46-7.39.46-10.85-2.53-6.72-5.4-13.31-7.76-20.09zm47.9-3.52c3.15-.82 6.47-.82 9.69-.58 2.57-.02 3.09 4.1.61 4.77-3.06.55-7.59-.72-9.05 2.97-1.31 4.57 1.29 9.96 5.56 11.99 2.19 1.04 5.55-.24 6.88 2.34.79 2.99-2.79 4.01-5.04 3.34-8.94-.41-15.73-9.78-14.1-18.41.39-2.97 2.56-5.6 5.45-6.42zm60.95-.1c4.49-.91 9.14-.44 13.7-.48 1.58-.15 3.09 1.34 2.96 2.93 0 6.68.17 13.38-.07 20.06-.8 3.51-5.32 2.39-7.95 2.4-9.02-.13-15.99-9.52-14.44-18.2.33-3.17 2.69-5.96 5.8-6.71m3 5.04c-4.25 2.49-2.38 8.82.32 11.86 1.63 1.64 4.68 4.06 6.89 2.39.23-4.76.41-9.6-.09-14.34-2.06-1.09-4.93-.58-7.12.09zm19.76-3.5c1.26-3.12 5.23-1.86 7.83-2.14 4.05.32 9.56-.94 12.15 3.08 2.07 4.73.95 10.07 1.29 15.08-.16 2.11.6 4.64-.94 6.4-1.55 1.8-4.87.93-5.33-1.39-.45-5.22.44-10.52-.48-15.7-1.14-3.25-5.32-2.16-7.96-2.5-.79 6-.01 12.07-.36 18.09-.61 3.13-5.55 3.25-6.18.11-.2-7-.16-14.03-.02-21.03z"/></svg>